<?xml version="1.0" encoding="UTF-8"?>
<svg width="44px" height="278px" viewBox="0 0 44 278" version="1.1" xmlns="http://www.w3.org/2000/svg" xmlns:xlink="http://www.w3.org/1999/xlink">
    <!-- Generator: Sketch 51.2 (57519) - http://www.bohemiancoding.com/sketch -->
    <title>Group 2</title>
    <desc>Created with Sketch.</desc>
    <defs></defs>
    <g id="首页" stroke="none" stroke-width="1" fill="none" fill-rule="evenodd">
        <g id="图标" transform="translate(-304.000000, -71.000000)" fill-rule="nonzero">
            <g id="Group-2" transform="translate(304.000000, 71.000000)">
                <path d="M39.8546556,6.81863098 L43,8.87236233 L43,4.26917138 L39.8546556,6.81863098 Z M27.9890909,1 L27,1 L27,15.1620175 L37.1236364,6.96191457 L27.9890909,1 Z M43,2.21049923 L43,1 L30.9140496,1 L38.4388981,5.90293361 L43,2.21049923 Z M27.2856198,17 L34.8298623,17 L32.1852342,13.0292331 L27.2856198,17 Z M42.9731952,17 L42.9731952,11.3409846 L38.5323416,7.875965 L33.4334986,12.0130726 L36.7516253,17 L42.9731952,17 Z" id="Shape" fill="#FFFFFF"></path>
                <path d="M13.8546556,6.81863098 L17,8.87236233 L17,4.26917138 L13.8546556,6.81863098 Z M1.98909091,1 L1,1 L1,15.1620175 L11.1236364,6.96191457 L1.98909091,1 Z M17,2.21049923 L17,1 L4.91404959,1 L12.4388981,5.90293361 L17,2.21049923 Z M1.28561983,17 L8.82986226,17 L6.18523416,13.0292331 L1.28561983,17 Z M16.9731952,17 L16.9731952,11.3409846 L12.5323416,7.875965 L7.43349862,12.0130726 L10.7516253,17 L16.9731952,17 Z" id="Shape" fill="#A6B1BC"></path>
                <path d="M42.9843925,63.0394059 C42.9842837,63.3465839 42.8500657,63.6411358 42.6112767,63.8582383 C42.3724877,64.0753407 42.0486965,64.1972021 41.7111612,64.1970038 L38.9753567,64.1970038 L36.0497997,63.1840589 L34.0615052,60.3904244 C33.9011473,60.15417 33.6763072,59.9597247 33.4088715,59.826016 C33.2979772,59.7968611 32.1204435,59.1887204 30.9277133,58.6385157 L42.9999999,58.6385157 L42.9843925,63.0394059 Z M29.7986446,57.1729228 C29.7985357,56.8619435 29.9341759,56.5636617 30.175726,56.343696 C30.4172761,56.1237303 30.7449495,56.0000991 31.0866618,56 L41.7267686,56 C42.432566,56.0075765 43.000274,56.5305589 42.9999999,57.1729228 L43,57.5635233 L29.7986445,57.5635233 L29.7986446,57.1729228 Z M28.2177842,59.1625558 L32.4691446,60.9753907 C32.6817023,61.0869688 32.8605078,61.2448124 32.9895266,61.4347668 L34.5654584,63.4098223 C34.5654584,63.4098223 34.7741041,63.7480935 34.3420268,64.0998209 L34.1941677,64.1943873 C34.070547,64.2660622 33.9227642,64.2949765 33.7776979,64.2758714 C33.6609554,64.2634226 33.55414,64.2100584 33.479926,64.1271069 L32.4843413,62.9097041 C32.3731859,62.8160542 32.2042414,62.8084191 32.0834377,62.8915862 C31.9626341,62.9747533 31.9247466,63.1247815 31.9935311,63.2476016 L32.9895266,64.4653781 C33.1552959,64.6736391 33.4079839,64.8105887 33.688161,64.8440176 L33.8811992,64.8440176 C34.1250733,64.8451373 34.3636121,64.7790736 34.5654584,64.654511 L34.7137283,64.5595707 C34.8583016,64.4601452 34.9798747,64.3360501 35.0710545,64.1943873 L37.062224,64.7629073 C37.6134099,64.8974682 37.7912516,65.1011785 37.8060375,65.3983339 L37.8060375,65.6958631 C37.8060375,65.8719137 37.4195502,66.0341344 36.9895266,65.9937661 L32.5295204,65.709693 C32.3377002,65.7105377 32.1469921,65.6831474 31.9647807,65.6285826 C31.8255355,65.5873417 31.6984267,65.5178078 31.5930793,65.4252461 L29.6758394,63.1934035 L27,61.2994583 L28.2177842,59.1625558 Z" id="Shape" fill="#FFFFFF"></path>
                <path d="M16.9843925,63.0394059 C16.9842837,63.3465839 16.8500657,63.6411358 16.6112767,63.8582383 C16.3724877,64.0753407 16.0486965,64.1972021 15.7111612,64.1970038 L12.9753567,64.1970038 L10.0497997,63.1840589 L8.06150525,60.3904244 C7.90114731,60.15417 7.67630723,59.9597247 7.4088715,59.826016 C7.29797716,59.7968611 6.12044353,59.1887204 4.92771328,58.6385157 L16.9999999,58.6385157 L16.9843925,63.0394059 Z M3.7986446,57.1729228 C3.79853566,56.8619435 3.93417588,56.5636617 4.17572597,56.343696 C4.41727606,56.1237303 4.74494949,56.0000991 5.08666184,56 L15.7267686,56 C16.432566,56.0075765 17.000274,56.5305589 16.9999999,57.1729228 L17,57.5635233 L3.79864454,57.5635233 L3.7986446,57.1729228 Z M2.21778415,59.1625558 L6.46914463,60.9753907 C6.68170233,61.0869688 6.86050785,61.2448124 6.98952661,61.4347668 L8.56545842,63.4098223 C8.56545842,63.4098223 8.77410407,63.7480935 8.34202685,64.0998209 L8.19416772,64.1943873 C8.07054698,64.2660622 7.92276416,64.2949765 7.77769786,64.2758714 C7.66095543,64.2634226 7.55413996,64.2100584 7.47992603,64.1271069 L6.48434128,62.9097041 C6.37318593,62.8160542 6.20424141,62.8084191 6.08343774,62.8915862 C5.96263408,62.9747533 5.92474658,63.1247815 5.99353112,63.2476016 L6.98952661,64.4653781 C7.15529591,64.6736391 7.40798391,64.8105887 7.68816096,64.8440176 L7.88119925,64.8440176 C8.12507331,64.8451373 8.36361214,64.7790736 8.56545842,64.654511 L8.71372826,64.5595707 C8.85830162,64.4601452 8.97987468,64.3360501 9.07105447,64.1943873 L11.062224,64.7629073 C11.6134099,64.8974682 11.7912516,65.1011785 11.8060375,65.3983339 L11.8060375,65.6958631 C11.8060375,65.8719137 11.4195502,66.0341344 10.9895266,65.9937661 L6.52952044,65.709693 C6.33770024,65.7105377 6.14699211,65.6831474 5.96478074,65.6285826 C5.82553552,65.5873417 5.69842671,65.5178078 5.59307933,65.4252461 L3.67583938,63.1934035 L1,61.2994583 L2.21778415,59.1625558 Z" id="Shape" fill="#A6B1BC"></path>
                <rect id="Rectangle-path" fill="#000000" opacity="0" x="1" y="27" width="16" height="16"></rect>
                <path d="M16.9678437,35.1740781 L16.9678437,39.1574375 L16.0587656,39.1574375 C15.9199531,38.7865156 15.7595312,38.4770469 15.568375,38.229 C14.8709219,37.3108125 13.664875,37.0650469 12.6056094,36.8420469 C12.1823594,36.7555781 11.7807187,36.671375 11.4632812,36.5553281 C11.32675,36.5064063 11.2311875,36.4574844 11.1651875,36.4222188 C11.4996875,36.0558594 11.7875469,35.6075625 11.9980312,35.10125 C12.262,34.4811719 12.3996719,33.8064688 12.3996719,33.1488125 C12.3996719,32.1441563 12.3359531,30.9938594 11.8762812,30.071125 C11.6726094,29.6683594 11.3495,29.2177969 10.8363437,28.8935313 C11.0809531,28.0106094 11.6407656,27.4235156 12.8285937,27.4235156 C14.6956875,27.4235156 14.9824062,28.9344844 14.9824062,30.7560625 C14.9824062,31.7106563 14.556875,32.6891406 13.9276875,33.2455156 C13.8651094,33.3024063 13.8298437,33.3831875 13.8298437,33.4650938 C13.8275625,33.6915156 13.8343906,33.9884844 13.9208594,34.0999844 C14.4487969,34.8042656 15.8835312,34.8258906 16.9678281,35.1740469 L16.9678437,35.1740781 Z M2.39292187,38.2574531 C3.07217187,37.2892031 4.31348437,37.0422969 5.40689062,36.8204375 C5.83584375,36.7362344 6.23746875,36.6520469 6.5571875,36.5405313 C6.68917187,36.493875 6.78246875,36.4517813 6.84732812,36.4142344 C6.51282812,36.047875 6.23521875,35.6041406 6.02015625,35.1069375 C5.75960937,34.49025 5.61739062,33.8280781 5.60826562,33.1840938 C5.59803125,32.3318906 5.6515,31.6833594 5.76185937,31.1326719 C5.92342187,30.3407656 6.21925,29.73775 6.66867187,29.2837813 C6.81771875,29.1290469 6.98496875,28.9993281 7.16246875,28.8878281 C6.91215625,28.0003594 6.36375,27.4132656 5.19979687,27.4132656 C3.2758125,27.4132656 3.00503125,28.9412969 3.02323437,30.7765313 C3.03346875,31.7117813 3.457875,32.6857188 4.08023437,33.2398125 C4.14395312,33.2955625 4.17921875,33.3774844 4.17921875,33.4639688 C4.17921875,33.6903906 4.1644375,33.9850625 4.08478125,34.08975 C3.56935937,34.7929063 2.12325,34.8088281 1.032125,35.1455938 L1.032125,39.1528438 L1.94348437,39.1528438 C2.07092187,38.7978594 2.22223437,38.5043125 2.39290625,38.2574063 L2.39292187,38.2574531 Z M15.5888594,42.2305781 C15.5979531,42.424 15.4432187,42.5855625 15.2520781,42.5855625 L2.7615625,42.5855625 C2.56814062,42.5855625 2.41567187,42.4228594 2.42590625,42.2305781 C2.47026562,41.466 2.63184375,39.675125 3.2086875,38.85025 C4.08476562,37.60325 6.977,38.0321875 7.78710937,36.9171719 C7.87928125,36.7954219 7.8940625,36.4666094 7.8940625,36.2128906 C7.8940625,36.1173281 7.85425,36.0262969 7.78370312,35.9603125 C7.08851562,35.3390781 6.61975,34.2513594 6.60951562,33.1989219 C6.58903125,31.1395313 6.88942187,29.4294688 9.023875,29.4294688 C11.0934844,29.4294688 11.4086562,31.1213594 11.4086562,33.1693594 C11.4086562,34.2411406 10.937625,35.3356875 10.2424375,35.9603281 C10.1752969,36.0217656 10.1320781,36.1162188 10.1309375,36.2049375 C10.12525,36.4575156 10.1411719,36.7931719 10.2287812,36.9183281 C11.0491094,38.0333438 13.854875,37.634 14.7844531,38.8514063 C15.3908906,39.6580938 15.5479062,41.4648906 15.588875,42.2306094 L15.5888594,42.2305781 Z" id="Shape" fill="#A6B1BC"></path>
                <rect id="Rectangle-path" fill="#000000" opacity="0" x="27" y="27" width="16" height="16"></rect>
                <path d="M42.9678437,35.1740781 L42.9678437,39.1574375 L42.0587656,39.1574375 C41.9199531,38.7865156 41.7595312,38.4770469 41.568375,38.229 C40.8709219,37.3108125 39.664875,37.0650469 38.6056094,36.8420469 C38.1823594,36.7555781 37.7807187,36.671375 37.4632812,36.5553281 C37.32675,36.5064063 37.2311875,36.4574844 37.1651875,36.4222188 C37.4996875,36.0558594 37.7875469,35.6075625 37.9980312,35.10125 C38.262,34.4811719 38.3996719,33.8064688 38.3996719,33.1488125 C38.3996719,32.1441563 38.3359531,30.9938594 37.8762812,30.071125 C37.6726094,29.6683594 37.3495,29.2177969 36.8363437,28.8935313 C37.0809531,28.0106094 37.6407656,27.4235156 38.8285937,27.4235156 C40.6956875,27.4235156 40.9824062,28.9344844 40.9824062,30.7560625 C40.9824062,31.7106563 40.556875,32.6891406 39.9276875,33.2455156 C39.8651094,33.3024063 39.8298437,33.3831875 39.8298437,33.4650938 C39.8275625,33.6915156 39.8343906,33.9884844 39.9208594,34.0999844 C40.4487969,34.8042656 41.8835312,34.8258906 42.9678281,35.1740469 L42.9678437,35.1740781 Z M28.3929219,38.2574531 C29.0721719,37.2892031 30.3134844,37.0422969 31.4068906,36.8204375 C31.8358437,36.7362344 32.2374687,36.6520469 32.5571875,36.5405313 C32.6891719,36.493875 32.7824687,36.4517813 32.8473281,36.4142344 C32.5128281,36.047875 32.2352187,35.6041406 32.0201562,35.1069375 C31.7596094,34.49025 31.6173906,33.8280781 31.6082656,33.1840938 C31.5980312,32.3318906 31.6515,31.6833594 31.7618594,31.1326719 C31.9234219,30.3407656 32.21925,29.73775 32.6686719,29.2837813 C32.8177187,29.1290469 32.9849687,28.9993281 33.1624687,28.8878281 C32.9121562,28.0003594 32.36375,27.4132656 31.1997969,27.4132656 C29.2758125,27.4132656 29.0050312,28.9412969 29.0232344,30.7765313 C29.0334687,31.7117813 29.457875,32.6857188 30.0802344,33.2398125 C30.1439531,33.2955625 30.1792187,33.3774844 30.1792187,33.4639688 C30.1792187,33.6903906 30.1644375,33.9850625 30.0847812,34.08975 C29.5693594,34.7929063 28.12325,34.8088281 27.032125,35.1455938 L27.032125,39.1528438 L27.9434844,39.1528438 C28.0709219,38.7978594 28.2222344,38.5043125 28.3929062,38.2574063 L28.3929219,38.2574531 Z M41.5888594,42.2305781 C41.5979531,42.424 41.4432187,42.5855625 41.2520781,42.5855625 L28.7615625,42.5855625 C28.5681406,42.5855625 28.4156719,42.4228594 28.4259062,42.2305781 C28.4702656,41.466 28.6318437,39.675125 29.2086875,38.85025 C30.0847656,37.60325 32.977,38.0321875 33.7871094,36.9171719 C33.8792812,36.7954219 33.8940625,36.4666094 33.8940625,36.2128906 C33.8940625,36.1173281 33.85425,36.0262969 33.7837031,35.9603125 C33.0885156,35.3390781 32.61975,34.2513594 32.6095156,33.1989219 C32.5890312,31.1395313 32.8894219,29.4294688 35.023875,29.4294688 C37.0934844,29.4294688 37.4086562,31.1213594 37.4086562,33.1693594 C37.4086562,34.2411406 36.937625,35.3356875 36.2424375,35.9603281 C36.1752969,36.0217656 36.1320781,36.1162188 36.1309375,36.2049375 C36.12525,36.4575156 36.1411719,36.7931719 36.2287812,36.9183281 C37.0491094,38.0333438 39.854875,37.634 40.7844531,38.8514063 C41.3908906,39.6580938 41.5479062,41.4648906 41.588875,42.2306094 L41.5888594,42.2305781 Z" id="Shape" fill="#FFFFFF"></path>
                <path d="M14.7571666,95.0259542 C14.8046864,95.0259542 14.8537412,94.9907467 14.9032276,94.9259542 C14.7617076,94.991416 14.617981,95.0259542 14.4723038,95.0259542 L14.7571666,95.0259542 Z M14.0259344,89.9519826 C13.6501892,89.9519826 13.3453878,90.2555847 13.3453878,90.6301788 C13.3453878,91.0047888 13.6501892,91.3083749 14.0259344,91.3083749 C14.4020634,91.3083749 14.7068647,91.0047888 14.7068647,90.6301788 C14.7068647,90.2555847 14.4020794,89.9519826 14.0259344,89.9519826 Z M14.4722878,88.0214994 C12.7719526,88.0214994 11.3935272,89.3940728 11.3935272,91.0877725 C11.3935272,92.7814722 12.7719526,94.154813 14.4722878,94.154813 C16.1722072,94.154813 17.5506167,92.7814402 17.5506167,91.0877725 C17.5506327,89.3940408 16.1722232,88.0214994 14.4722878,88.0214994 Z M15.9546907,92.8904543 C15.8608503,92.8904543 15.7755482,92.85248 15.713878,92.7912095 L14.7165222,91.7973554 C14.5137317,91.9167944 14.2783712,91.9862193 14.0259344,91.9862193 C13.2740602,91.9862193 12.6645214,91.3793828 12.6645214,90.6301787 C12.6645214,89.8813744 13.2740602,89.2741541 14.0259344,89.2741541 C14.7778086,89.2741541 15.3873953,89.8813744 15.3873953,90.6301787 C15.3873953,90.8814643 15.3175867,91.1160573 15.1977959,91.3180803 L16.1954715,92.3115348 C16.2567419,92.373173 16.2951479,92.4577396 16.2951479,92.551564 C16.2951639,92.738861 16.1427392,92.8904543 15.9546907,92.8904543 Z M5.22951439,81.8302891 C5.60572333,81.8302891 6.02383984,81.4106216 6.02383984,81.0359636 L6.02383984,79.8444675 C6.02383984,79.4698095 5.76241709,79.050142 5.22951439,79.050142 C4.77342362,79.050142 4.43518894,79.4698095 4.43518894,79.8444675 L4.43518894,81.0359636 C4.43518894,81.4106216 4.85332145,81.8302891 5.22951439,81.8302891 Z M8.80395492,81.8302891 C9.44780639,81.8302891 9.59829636,81.4106216 9.59829636,81.0359636 L9.59829636,79.8444675 C9.59829636,79.4698095 9.37643078,79.050142 8.80395492,79.050142 C8.2415842,79.050142 8.00962947,79.4698095 8.00962947,79.8444675 L8.00962947,81.0359636 C8.00962947,81.4106216 8.28616198,81.8302891 8.80395492,81.8302891 Z M12.3783955,81.8302891 C12.8957727,81.8302891 13.1727209,81.4106216 13.1727209,81.0359636 L13.1727209,79.8444675 C13.1727209,79.4698095 12.8958046,79.050142 12.3783954,79.050142 C11.9223047,79.050142 11.584054,79.4698095 11.584054,79.8444675 L11.584054,81.0359636 C11.58407,81.4106216 12.0025702,81.8302891 12.3783955,81.8302891 Z M14.7613558,95.0127631 C14.8086197,95.0127631 14.8574666,94.9775443 14.9067132,94.9127631 C14.7658487,94.9781503 14.6228417,95.0127631 14.477852,95.0127631 L14.7613558,95.0127631 Z M10.619476,91.092921 C10.619476,88.9705999 12.3469608,87.2500705 14.477852,87.2500705 C14.8617997,87.2500705 15.2325243,87.3062244 15.582559,87.4102658 L15.5556812,81.4331343 C15.5556812,81.0584284 15.1375807,80.6387929 14.7613558,80.6387929 L13.9670144,80.6387929 L13.9670144,81.4331343 C13.9670144,82.1824503 13.1304136,82.6246145 12.3783954,82.6246145 C11.6263773,82.6246145 10.7897605,82.1824663 10.7897605,81.4331343 L10.7897605,80.6387929 L10.3925898,80.6387929 L10.3925898,81.4331343 C10.3925898,82.1824503 9.55016897,82.6246145 8.80397089,82.6246145 C7.59192866,82.6246145 7.21535197,81.7853116 7.21535197,81.0359956 L7.21535197,80.6388089 L6.81818127,80.6388089 L6.81818127,81.0359796 C6.81738181,81.789149 6.22012275,82.6184107 5.19345883,82.6184107 C4.4414247,82.6184107 3.64089547,82.0529221 3.64089547,81.0359796 L3.64089547,80.6388089 L3.24372475,80.6388089 C2.86751581,80.6388089 2.44938331,81.0584444 2.44938331,81.4331503 L2.44938331,94.0320803 C2.44938331,94.4067702 2.86748384,94.936523 3.24372475,94.936523 L14.477836,94.936523 C12.3469927,94.936507 10.619476,93.2160095 10.619476,91.092921 Z M4.83235966,85.0075589 C4.83235966,85.0075589 13.1160873,85.0440142 13.1374168,85.0075589 C13.5217802,84.9936003 13.9670303,85.2363957 13.9670303,85.8018843 C13.9670303,86.336338 13.5489458,86.5962098 13.1727049,86.5962098 L4.83235966,86.5962098 C4.45613473,86.5962098 4.0380342,86.3999748 4.0380342,85.8018843 C4.0380502,85.2945803 4.45613473,85.0075589 4.83235966,85.0075589 Z M8.40680019,92.9507494 L4.83235966,92.9507494 C4.51895614,92.9507494 4.0380342,92.7723423 4.0380342,92.156408 C4.0380342,91.690228 4.51897212,91.3194074 4.83235966,91.3194074 L8.40680019,91.3620825 C8.7201877,91.3620825 9.20114162,91.5343017 9.20114162,92.156408 C9.20114162,92.6497535 8.72018772,92.9507494 8.40680019,92.9507494 Z M9.20114162,89.7734476 L4.83235966,89.7734476 C4.45613473,89.7734476 4.0380342,89.5252479 4.0380342,88.9791382 C4.0380342,88.3764108 4.45611873,88.1848127 4.83235966,88.1848127 L9.20112564,88.1848127 C9.57730259,88.1848127 9.99543509,88.4811238 9.99543509,88.9791382 C9.99543509,89.3538121 9.57731858,89.7734476 9.20114162,89.7734476 Z" id="Shape" fill="#A6B1BC"></path>
                <path d="M40.7571666,95.0259542 C40.8046864,95.0259542 40.8537412,94.9907467 40.9032276,94.9259542 C40.7617076,94.991416 40.617981,95.0259542 40.4723038,95.0259542 L40.7571666,95.0259542 Z M40.0259344,89.9519826 C39.6501892,89.9519826 39.3453878,90.2555847 39.3453878,90.6301788 C39.3453878,91.0047888 39.6501892,91.3083749 40.0259344,91.3083749 C40.4020634,91.3083749 40.7068647,91.0047888 40.7068647,90.6301788 C40.7068647,90.2555847 40.4020794,89.9519826 40.0259344,89.9519826 Z M40.4722878,88.0214994 C38.7719526,88.0214994 37.3935272,89.3940728 37.3935272,91.0877725 C37.3935272,92.7814722 38.7719526,94.154813 40.4722878,94.154813 C42.1722072,94.154813 43.5506167,92.7814402 43.5506167,91.0877725 C43.5506327,89.3940408 42.1722232,88.0214994 40.4722878,88.0214994 Z M41.9546907,92.8904543 C41.8608503,92.8904543 41.7755482,92.85248 41.713878,92.7912095 L40.7165222,91.7973554 C40.5137317,91.9167944 40.2783712,91.9862193 40.0259344,91.9862193 C39.2740602,91.9862193 38.6645214,91.3793828 38.6645214,90.6301787 C38.6645214,89.8813744 39.2740602,89.2741541 40.0259344,89.2741541 C40.7778086,89.2741541 41.3873953,89.8813744 41.3873953,90.6301787 C41.3873953,90.8814643 41.3175867,91.1160573 41.1977959,91.3180803 L42.1954715,92.3115348 C42.2567419,92.373173 42.2951479,92.4577396 42.2951479,92.551564 C42.2951639,92.738861 42.1427392,92.8904543 41.9546907,92.8904543 Z M31.2295144,81.8302891 C31.6057233,81.8302891 32.0238398,81.4106216 32.0238398,81.0359636 L32.0238398,79.8444675 C32.0238398,79.4698095 31.7624171,79.050142 31.2295144,79.050142 C30.7734236,79.050142 30.4351889,79.4698095 30.4351889,79.8444675 L30.4351889,81.0359636 C30.4351889,81.4106216 30.8533215,81.8302891 31.2295144,81.8302891 Z M34.8039549,81.8302891 C35.4478064,81.8302891 35.5982964,81.4106216 35.5982964,81.0359636 L35.5982964,79.8444675 C35.5982964,79.4698095 35.3764308,79.050142 34.8039549,79.050142 C34.2415842,79.050142 34.0096295,79.4698095 34.0096295,79.8444675 L34.0096295,81.0359636 C34.0096295,81.4106216 34.286162,81.8302891 34.8039549,81.8302891 Z M38.3783955,81.8302891 C38.8957727,81.8302891 39.1727209,81.4106216 39.1727209,81.0359636 L39.1727209,79.8444675 C39.1727209,79.4698095 38.8958046,79.050142 38.3783954,79.050142 C37.9223047,79.050142 37.584054,79.4698095 37.584054,79.8444675 L37.584054,81.0359636 C37.58407,81.4106216 38.0025702,81.8302891 38.3783955,81.8302891 Z M40.7613558,95.0127631 C40.8086197,95.0127631 40.8574666,94.9775443 40.9067132,94.9127631 C40.7658487,94.9781503 40.6228417,95.0127631 40.477852,95.0127631 L40.7613558,95.0127631 Z M36.619476,91.092921 C36.619476,88.9705999 38.3469608,87.2500705 40.477852,87.2500705 C40.8617997,87.2500705 41.2325243,87.3062244 41.582559,87.4102658 L41.5556812,81.4331343 C41.5556812,81.0584284 41.1375807,80.6387929 40.7613558,80.6387929 L39.9670144,80.6387929 L39.9670144,81.4331343 C39.9670144,82.1824503 39.1304136,82.6246145 38.3783954,82.6246145 C37.6263773,82.6246145 36.7897605,82.1824663 36.7897605,81.4331343 L36.7897605,80.6387929 L36.3925898,80.6387929 L36.3925898,81.4331343 C36.3925898,82.1824503 35.550169,82.6246145 34.8039709,82.6246145 C33.5919287,82.6246145 33.215352,81.7853116 33.215352,81.0359956 L33.215352,80.6388089 L32.8181813,80.6388089 L32.8181813,81.0359796 C32.8173818,81.789149 32.2201227,82.6184107 31.1934588,82.6184107 C30.4414247,82.6184107 29.6408955,82.0529221 29.6408955,81.0359796 L29.6408955,80.6388089 L29.2437247,80.6388089 C28.8675158,80.6388089 28.4493833,81.0584444 28.4493833,81.4331503 L28.4493833,94.0320803 C28.4493833,94.4067702 28.8674838,94.936523 29.2437247,94.936523 L40.477836,94.936523 C38.3469927,94.936507 36.619476,93.2160095 36.619476,91.092921 Z M30.8323597,85.0075589 C30.8323597,85.0075589 39.1160873,85.0440142 39.1374168,85.0075589 C39.5217802,84.9936003 39.9670303,85.2363957 39.9670303,85.8018843 C39.9670303,86.336338 39.5489458,86.5962098 39.1727049,86.5962098 L30.8323597,86.5962098 C30.4561347,86.5962098 30.0380342,86.3999748 30.0380342,85.8018843 C30.0380502,85.2945803 30.4561347,85.0075589 30.8323597,85.0075589 Z M34.4068002,92.9507494 L30.8323597,92.9507494 C30.5189561,92.9507494 30.0380342,92.7723423 30.0380342,92.156408 C30.0380342,91.690228 30.5189721,91.3194074 30.8323597,91.3194074 L34.4068002,91.3620825 C34.7201877,91.3620825 35.2011416,91.5343017 35.2011416,92.156408 C35.2011416,92.6497535 34.7201877,92.9507494 34.4068002,92.9507494 Z M35.2011416,89.7734476 L30.8323597,89.7734476 C30.4561347,89.7734476 30.0380342,89.5252479 30.0380342,88.9791382 C30.0380342,88.3764108 30.4561187,88.1848127 30.8323597,88.1848127 L35.2011256,88.1848127 C35.5773026,88.1848127 35.9954351,88.4811238 35.9954351,88.9791382 C35.9954351,89.3538121 35.5773186,89.7734476 35.2011416,89.7734476 Z" id="Shape" fill="#FFFFFF"></path>
                <g id="jigou-copy" transform="translate(1.000000, 105.000000)" fill="#A6B1BC">
                    <path d="M13.6311111,10.6678133 L13.6311111,9.36883039 L8.37333333,9.36883039 L8.37333333,10.6678133 L9.51777778,10.6678133 C9.85333333,10.6678133 10.1288889,10.9527371 10.1288889,11.2915046 L10.1288889,14.3785522 C10.1288889,14.7218068 9.85333333,15 9.51777778,15 L6.48888889,15 C6.15333333,15 5.87333333,14.7195633 5.87333333,14.3785522 L5.87333333,11.2892611 C5.87333333,10.9504936 6.15333333,10.6655698 6.48888889,10.6655698 L7.62888889,10.6655698 L7.62888889,9.3665869 L2.50444444,9.3665869 L2.50444444,10.6655698 L3.64666667,10.6655698 C3.98,10.6655698 4.26,10.9504936 4.26,11.2892611 L4.26,14.3763087 C4.26,14.7195633 3.98222222,14.9977565 3.64666667,14.9977565 L0.615555556,14.9977565 C0.273333333,14.9977565 0,14.7173198 0,14.3763087 L0,11.2892611 C0,10.9504936 0.273333333,10.6655698 0.615555556,10.6655698 L1.76,10.6655698 L1.76,8.98967993 C1.76,8.781035 1.92666667,8.61052946 2.12666667,8.61052946 L7.62888889,8.61052946 L7.62888889,5.99012863 L5.51555556,5.99012863 C5.17333333,5.99012863 4.90222222,5.70520491 4.90222222,5.35970685 L4.90222222,0.621447801 C4.90222222,0.275949746 5.17333333,0 5.51555556,0 L10.4844444,0 C10.8266667,0 11.1022222,0.275949746 11.1022222,0.621447801 L11.1022222,5.35746336 C11.1022222,5.70296141 10.8266667,5.98788513 10.4844444,5.98788513 L8.37111111,5.98788513 L8.37111111,8.61052946 L14.0066667,8.61052946 C14.2066667,8.61052946 14.3688889,8.7787915 14.3688889,8.98967993 L14.3688889,10.6655698 L15.3866667,10.6655698 C15.7244444,10.6655698 16,10.9504936 16,11.2892611 L16,14.3763087 C16,14.7195633 15.7244444,14.9977565 15.3866667,14.9977565 L12.3622222,14.9977565 C12.0155556,14.9977565 11.7444444,14.7173198 11.7444444,14.3763087 L11.7444444,11.2892611 C11.7444444,10.9504936 12.0155556,10.6655698 12.3622222,10.6655698 L13.6311111,10.6655698 L13.6311111,10.6678133 Z" id="Shape"></path>
                </g>
                <g id="jigou-copy-copy" transform="translate(27.000000, 105.000000)" fill="#FFFFFF">
                    <path d="M13.6311111,10.6678133 L13.6311111,9.36883039 L8.37333333,9.36883039 L8.37333333,10.6678133 L9.51777778,10.6678133 C9.85333333,10.6678133 10.1288889,10.9527371 10.1288889,11.2915046 L10.1288889,14.3785522 C10.1288889,14.7218068 9.85333333,15 9.51777778,15 L6.48888889,15 C6.15333333,15 5.87333333,14.7195633 5.87333333,14.3785522 L5.87333333,11.2892611 C5.87333333,10.9504936 6.15333333,10.6655698 6.48888889,10.6655698 L7.62888889,10.6655698 L7.62888889,9.3665869 L2.50444444,9.3665869 L2.50444444,10.6655698 L3.64666667,10.6655698 C3.98,10.6655698 4.26,10.9504936 4.26,11.2892611 L4.26,14.3763087 C4.26,14.7195633 3.98222222,14.9977565 3.64666667,14.9977565 L0.615555556,14.9977565 C0.273333333,14.9977565 0,14.7173198 0,14.3763087 L0,11.2892611 C0,10.9504936 0.273333333,10.6655698 0.615555556,10.6655698 L1.76,10.6655698 L1.76,8.98967993 C1.76,8.781035 1.92666667,8.61052946 2.12666667,8.61052946 L7.62888889,8.61052946 L7.62888889,5.99012863 L5.51555556,5.99012863 C5.17333333,5.99012863 4.90222222,5.70520491 4.90222222,5.35970685 L4.90222222,0.621447801 C4.90222222,0.275949746 5.17333333,0 5.51555556,0 L10.4844444,0 C10.8266667,0 11.1022222,0.275949746 11.1022222,0.621447801 L11.1022222,5.35746336 C11.1022222,5.70296141 10.8266667,5.98788513 10.4844444,5.98788513 L8.37111111,5.98788513 L8.37111111,8.61052946 L14.0066667,8.61052946 C14.2066667,8.61052946 14.3688889,8.7787915 14.3688889,8.98967993 L14.3688889,10.6655698 L15.3866667,10.6655698 C15.7244444,10.6655698 16,10.9504936 16,11.2892611 L16,14.3763087 C16,14.7195633 15.7244444,14.9977565 15.3866667,14.9977565 L12.3622222,14.9977565 C12.0155556,14.9977565 11.7444444,14.7173198 11.7444444,14.3763087 L11.7444444,11.2892611 C11.7444444,10.9504936 12.0155556,10.6655698 12.3622222,10.6655698 L13.6311111,10.6655698 L13.6311111,10.6678133 Z" id="Shape"></path>
                </g>
                <path d="M13.7691165,140.69416 C13.7691165,140.393833 13.6707797,140.136414 13.460078,139.907574 L7.43371101,133.78657 C7.2229781,133.572059 6.92799894,133.386128 6.57684518,133.228824 C6.21161651,133.071503 5.88851877,133 5.59352397,133 L2.08165803,133 C1.78666323,133 1.53378373,133.114412 1.32309773,133.328938 C1.11236482,133.54348 1,133.800883 1,134.101211 L1,137.662261 C1,137.962588 1.07023388,138.305824 1.22476092,138.663357 C1.37928797,139.035188 1.54785866,139.321217 1.77260394,139.53576 L7.79897097,145.671062 C8.0096726,145.885572 8.26253646,145.985687 8.55753126,145.985687 C8.85252606,145.985687 9.10537428,145.885572 9.33015084,145.671062 L13.4601093,141.466449 C13.6567673,141.251906 13.7691478,140.994503 13.7691478,140.694176 L13.7691165,140.69416 Z M4.4556288,136.532455 C4.24489588,136.746998 3.99206331,136.84708 3.69706851,136.84708 C3.40207371,136.84708 3.14922549,136.746966 2.93850821,136.532455 C2.72780658,136.317913 2.62946977,136.06051 2.62946977,135.760183 C2.62946977,135.459856 2.72780658,135.202437 2.93850821,134.987911 C3.14924113,134.773368 3.40207371,134.673286 3.69706851,134.673286 C3.99206331,134.673286 4.24491152,134.7734 4.4556288,134.987911 C4.66636171,135.202453 4.76466725,135.459856 4.76466725,135.760183 C4.77871089,136.06051 4.66633043,136.317929 4.4556288,136.532455 Z M16.6909928,139.90759 L10.6646258,133.786586 C10.4538929,133.572075 10.1589137,133.386144 9.80775998,133.22884 C9.4425313,133.071519 9.11943356,133.000016 8.82443876,133.000016 L6.92803021,133.000016 C7.22302501,133.000016 7.5601664,133.071519 7.91135143,133.22884 C8.27658011,133.38616 8.55753126,133.557778 8.76821725,133.786586 L14.7945843,139.90759 C15.0052859,140.136414 15.1036227,140.393833 15.1036227,140.694176 C15.1036227,140.994519 15.0052859,141.251954 14.7945843,141.466449 L10.8472089,145.499444 C11.0157796,145.671062 11.1703066,145.799771 11.2967151,145.885588 C11.4231392,145.971389 11.5917099,146 11.7883835,146 C12.0833783,146 12.3362578,145.899886 12.5610031,145.685375 L16.6909616,141.466464 C16.9016945,141.251922 17,140.994519 17,140.694192 C17,140.393865 16.9016632,140.136446 16.6909616,139.907606 L16.6909928,139.90759 Z" id="Shape" fill="#A6B1BC"></path>
                <path d="M39.7691165,140.69416 C39.7691165,140.393833 39.6707797,140.136414 39.460078,139.907574 L33.433711,133.78657 C33.2229781,133.572059 32.9279989,133.386128 32.5768452,133.228824 C32.2116165,133.071503 31.8885188,133 31.593524,133 L28.081658,133 C27.7866632,133 27.5337837,133.114412 27.3230977,133.328938 C27.1123648,133.54348 27,133.800883 27,134.101211 L27,137.662261 C27,137.962588 27.0702339,138.305824 27.2247609,138.663357 C27.379288,139.035188 27.5478587,139.321217 27.7726039,139.53576 L33.798971,145.671062 C34.0096726,145.885572 34.2625365,145.985687 34.5575313,145.985687 C34.8525261,145.985687 35.1053743,145.885572 35.3301508,145.671062 L39.4601093,141.466449 C39.6567673,141.251906 39.7691478,140.994503 39.7691478,140.694176 L39.7691165,140.69416 Z M30.4556288,136.532455 C30.2448959,136.746998 29.9920633,136.84708 29.6970685,136.84708 C29.4020737,136.84708 29.1492255,136.746966 28.9385082,136.532455 C28.7278066,136.317913 28.6294698,136.06051 28.6294698,135.760183 C28.6294698,135.459856 28.7278066,135.202437 28.9385082,134.987911 C29.1492411,134.773368 29.4020737,134.673286 29.6970685,134.673286 C29.9920633,134.673286 30.2449115,134.7734 30.4556288,134.987911 C30.6663617,135.202453 30.7646672,135.459856 30.7646672,135.760183 C30.7787109,136.06051 30.6663304,136.317929 30.4556288,136.532455 Z M42.6909928,139.90759 L36.6646258,133.786586 C36.4538929,133.572075 36.1589137,133.386144 35.80776,133.22884 C35.4425313,133.071519 35.1194336,133.000016 34.8244388,133.000016 L32.9280302,133.000016 C33.223025,133.000016 33.5601664,133.071519 33.9113514,133.22884 C34.2765801,133.38616 34.5575313,133.557778 34.7682173,133.786586 L40.7945843,139.90759 C41.0052859,140.136414 41.1036227,140.393833 41.1036227,140.694176 C41.1036227,140.994519 41.0052859,141.251954 40.7945843,141.466449 L36.8472089,145.499444 C37.0157796,145.671062 37.1703066,145.799771 37.2967151,145.885588 C37.4231392,145.971389 37.5917099,146 37.7883835,146 C38.0833783,146 38.3362578,145.899886 38.5610031,145.685375 L42.6909616,141.466464 C42.9016945,141.251922 43,140.994519 43,140.694192 C43,140.393865 42.9016632,140.136446 42.6909616,139.907606 L42.6909928,139.90759 Z" id="Shape" fill="#FFFFFF"></path>
                <g id="zhengxin" transform="translate(2.000000, 235.000000)" fill="#A6B1BC">
                    <path d="M0.000281651398,2.72982118 C-0.00304780013,2.63855026 0.0232178275,2.54880692 0.0750091896,2.47472089 C0.137851686,2.40817291 0.213449006,2.3558868 0.2969722,2.32120247 L6.75350599,0.0249181049 C6.91664879,-0.00830603496 7.08423085,-0.00830603496 7.24737366,0.0249181049 L13.6783817,2.32120247 C13.766427,2.34793454 13.8441141,2.40139867 13.9014545,2.47472089 C13.9669369,2.54210312 14.0025463,2.63441643 13.9998581,2.72982118 C13.9798815,3.68415589 13.9221711,4.63658116 13.8270969,5.587097 C13.62881,7.62866297 13.3073336,9.18523291 12.8622977,10.2568068 C12.4742541,11.2302878 11.9399111,12.1345015 11.2789617,12.9361235 C10.7297475,13.588978 10.1072004,14.1720204 9.42446077,14.6729439 C8.95158886,15.0435252 8.44657497,15.3682347 7.91585224,15.642936 C7.70979659,15.7624665 7.49486241,15.865194 7.27215953,15.9488272 C7.18559396,15.9789962 7.09532901,15.9961811 7.00358431,16 C6.91211697,15.9965904 6.82162873,15.9793493 6.73500907,15.9488272 C6.50726453,15.859185 6.28436215,15.7569459 6.06727037,15.6425541 C5.5406999,15.3607032 5.03629209,15.0367664 4.55866183,14.6737077 C3.88729597,14.1675236 3.27327647,13.5849134 2.72820695,12.9368873 C2.06707257,12.1356856 1.53270687,11.2316913 1.14487087,10.2583344 C0.695765717,9.18485104 0.372069677,7.62751732 0.173782736,5.587097 C0.0794986562,4.63741483 0.021865979,3.68423524 0.00102152952,2.72982118 L0.000281651398,2.72982118 Z M10.0914596,8.16406805 C10.0713101,8.1450494 10.0447606,8.1349088 10.0174719,8.13580844 L5.78796693,8.13580844 C5.76061291,8.13448397 5.73391049,8.14468297 5.71397927,8.16406805 C5.69917055,8.17690453 5.68997416,8.19534102 5.68845352,8.21524086 L5.68845352,11.0492216 C5.68993327,11.0690797 5.69918173,11.0874103 5.71360933,11.1003944 C5.73415168,11.1187212 5.76088101,11.1279188 5.78796693,11.1259808 L6.35693209,11.1259808 C6.37605702,11.1248521 6.39387239,11.1155876 6.40613388,11.1003944 C6.42070716,11.0874117 6.42974394,11.0690288 6.43128969,11.0492216 L6.43128969,10.6661893 L9.37340928,10.6661893 L9.37340928,11.0492216 C9.37451909,11.0690797 9.38376755,11.0874103 9.39856509,11.1003944 C9.41143295,11.1154087 9.42950325,11.1245985 9.44887671,11.1259808 L10.0167321,11.1259808 C10.0438597,11.1282666 10.0707161,11.1190253 10.0910897,11.1003944 C10.1060012,11.0876882 10.1151156,11.0691474 10.1162455,11.0492216 L10.1162455,8.21562275 C10.1149992,8.19562189 10.1059164,8.17700741 10.0910897,8.16406805 L10.0914596,8.16406805 Z M10.1902331,6.96494401 L10.190973,6.96494401 C10.1850239,6.9250896 10.15454,6.89393114 10.1158755,6.88818478 L5.71397927,6.88818478 C5.68702872,6.88643175 5.66048046,6.89561267 5.63999159,6.91377119 C5.62559594,6.92680729 5.6168121,6.94521716 5.61557566,6.96494401 L5.61557566,7.50073096 C5.61631554,7.52020718 5.62482412,7.53891962 5.63962165,7.55190376 C5.65999523,7.57053464 5.68685162,7.5797759 5.71397927,7.57749017 L10.1158755,7.57749017 C10.1350242,7.57645321 10.1528731,7.56717121 10.1650773,7.55190376 C10.1800612,7.53925746 10.1891928,7.5206816 10.1902331,7.50073096 L10.1902331,6.96494401 Z M5.29372931,4.38797296 C5.27458067,4.38900992 5.2567317,4.39829192 5.24452751,4.41355937 C5.22630857,4.43420154 5.21719956,4.46171977 5.2193717,4.4895548 L5.2193717,5.02801496 C5.22567381,5.06718596 5.25569341,5.09771261 5.29372931,5.10362853 L10.5368654,5.10362853 C10.5640035,5.10600501 10.5908937,5.09675212 10.611223,5.07804212 C10.6256979,5.06546567 10.6347456,5.04747266 10.6363788,5.02801496 L10.6363788,4.4895548 C10.6383897,4.4616255 10.6293084,4.43405333 10.611223,4.41317748 C10.5908341,4.39460523 10.5639507,4.38549275 10.5368654,4.38797296 L8.33277274,4.38797296 C8.35007742,4.37568787 8.36150912,4.35638988 8.36421749,4.33489071 C8.37121106,4.33620964 8.37838868,4.33392981 8.3834543,4.32878052 C8.38843646,4.323705 8.39065405,4.31640813 8.38937331,4.30930431 C8.3882434,4.28937855 8.37912901,4.27083774 8.36421749,4.2581315 C8.20472666,3.960609 8.03164745,3.67106782 7.84556395,3.39048505 C7.82854678,3.35687902 7.81152962,3.3404579 7.79525234,3.3404579 L7.71830517,3.3404579 L7.22369761,3.61999893 C7.21660367,3.61912551 7.20951356,3.62165905 7.20446082,3.62687289 C7.19936135,3.63205718 7.19689857,3.63940168 7.19780193,3.64673099 C7.18336815,3.65924983 7.17454222,3.67733378 7.173386,3.69675814 C7.17449582,3.71661625 7.18337434,3.7349468 7.19780193,3.74793096 C7.33308742,3.95905682 7.46504942,4.17243218 7.59363595,4.38797296 L5.29409925,4.38797296 L5.29372931,4.38797296 Z M5.44170465,3.59746761 C5.44077458,3.57754934 5.43194436,3.55890417 5.41728872,3.54591292 L5.39250285,3.52032651 L4.79912175,3.36680808 C4.79293638,3.35917443 4.78379156,3.35476345 4.77415091,3.35476345 C4.76451027,3.35476345 4.75536545,3.35917443 4.74918008,3.36680808 L4.69997828,3.4179809 C4.35050049,4.73303745 3.79975099,5.98201543 3.06855021,7.11769865 C3.06168418,7.11689277 3.05484624,7.11943394 3.05005329,7.12457262 C3.04545309,7.12957286 3.04327904,7.13644592 3.04413428,7.14328506 C3.0452441,7.16276128 3.05412262,7.18147372 3.06818027,7.19445787 L3.31566902,7.80662216 C3.3164089,7.82648027 3.32528742,7.84481082 3.33971501,7.85779496 C3.34568093,7.86553088 3.35473727,7.87003786 3.36431591,7.87003786 C3.37389456,7.87003786 3.3829509,7.86553088 3.38891682,7.85779496 C3.42221127,7.85779496 3.43848856,7.84901156 3.43848854,7.83220855 C3.64355424,7.54840705 3.84153632,7.25922382 4.03223958,6.96494401 L4.03223958,11.0473122 C4.03801507,11.0866933 4.06776795,11.1177159 4.10585732,11.1240714 L4.65151635,11.1240714 C4.67821639,11.1256231 4.70446316,11.1164547 4.72476415,11.098485 C4.73884743,11.0852042 4.74756532,11.0669325 4.74918008,11.0473122 L4.74918008,5.5359242 C5.01325281,4.91152255 5.24443168,4.27283985 5.44170465,3.62267213 L5.44170465,3.59746761 Z M5.71027987,5.63750604 L5.71397927,5.63750604 C5.65976348,5.63853548 5.61616676,5.68387867 5.61557566,5.73985166 L5.61557566,6.25005222 C5.61319268,6.27814438 5.62231599,6.30598281 5.64073147,6.32681142 C5.66074224,6.34530094 5.68720406,6.3545444 5.71397927,6.35239783 L10.112916,6.35239783 C10.1321957,6.35146637 10.1501981,6.34217445 10.1624878,6.32681142 C10.180313,6.30564789 10.189233,6.27802365 10.1872736,6.25005222 L10.1872736,5.73985166 C10.1891813,5.71223412 10.1802491,5.68498501 10.1624878,5.66423811 C10.1500654,5.64887637 10.1322263,5.63925646 10.112916,5.63750604 L5.71064981,5.63750604 L5.71027987,5.63750604 Z" id="Shape"></path>
                    <polygon id="Shape" points="8.99974862 9 7 9 7 10 9 10"></polygon>
                </g>
                <g id="zhengxin-copy" transform="translate(28.000000, 235.000000)" fill="#FFFFFF">
                    <path d="M0.000281651398,2.72982118 C-0.00304780013,2.63855026 0.0232178275,2.54880692 0.0750091896,2.47472089 C0.137851686,2.40817291 0.213449006,2.3558868 0.2969722,2.32120247 L6.75350599,0.0249181049 C6.91664879,-0.00830603496 7.08423085,-0.00830603496 7.24737366,0.0249181049 L13.6783817,2.32120247 C13.766427,2.34793454 13.8441141,2.40139867 13.9014545,2.47472089 C13.9669369,2.54210312 14.0025463,2.63441643 13.9998581,2.72982118 C13.9798815,3.68415589 13.9221711,4.63658116 13.8270969,5.587097 C13.62881,7.62866297 13.3073336,9.18523291 12.8622977,10.2568068 C12.4742541,11.2302878 11.9399111,12.1345015 11.2789617,12.9361235 C10.7297475,13.588978 10.1072004,14.1720204 9.42446077,14.6729439 C8.95158886,15.0435252 8.44657497,15.3682347 7.91585224,15.642936 C7.70979659,15.7624665 7.49486241,15.865194 7.27215953,15.9488272 C7.18559396,15.9789962 7.09532901,15.9961811 7.00358431,16 C6.91211697,15.9965904 6.82162873,15.9793493 6.73500907,15.9488272 C6.50726453,15.859185 6.28436215,15.7569459 6.06727037,15.6425541 C5.5406999,15.3607032 5.03629209,15.0367664 4.55866183,14.6737077 C3.88729597,14.1675236 3.27327647,13.5849134 2.72820695,12.9368873 C2.06707257,12.1356856 1.53270687,11.2316913 1.14487087,10.2583344 C0.695765717,9.18485104 0.372069677,7.62751732 0.173782736,5.587097 C0.0794986562,4.63741483 0.021865979,3.68423524 0.00102152952,2.72982118 L0.000281651398,2.72982118 Z M10.0914596,8.16406805 C10.0713101,8.1450494 10.0447606,8.1349088 10.0174719,8.13580844 L5.78796693,8.13580844 C5.76061291,8.13448397 5.73391049,8.14468297 5.71397927,8.16406805 C5.69917055,8.17690453 5.68997416,8.19534102 5.68845352,8.21524086 L5.68845352,11.0492216 C5.68993327,11.0690797 5.69918173,11.0874103 5.71360933,11.1003944 C5.73415168,11.1187212 5.76088101,11.1279188 5.78796693,11.1259808 L6.35693209,11.1259808 C6.37605702,11.1248521 6.39387239,11.1155876 6.40613388,11.1003944 C6.42070716,11.0874117 6.42974394,11.0690288 6.43128969,11.0492216 L6.43128969,10.6661893 L9.37340928,10.6661893 L9.37340928,11.0492216 C9.37451909,11.0690797 9.38376755,11.0874103 9.39856509,11.1003944 C9.41143295,11.1154087 9.42950325,11.1245985 9.44887671,11.1259808 L10.0167321,11.1259808 C10.0438597,11.1282666 10.0707161,11.1190253 10.0910897,11.1003944 C10.1060012,11.0876882 10.1151156,11.0691474 10.1162455,11.0492216 L10.1162455,8.21562275 C10.1149992,8.19562189 10.1059164,8.17700741 10.0910897,8.16406805 L10.0914596,8.16406805 Z M10.1902331,6.96494401 L10.190973,6.96494401 C10.1850239,6.9250896 10.15454,6.89393114 10.1158755,6.88818478 L5.71397927,6.88818478 C5.68702872,6.88643175 5.66048046,6.89561267 5.63999159,6.91377119 C5.62559594,6.92680729 5.6168121,6.94521716 5.61557566,6.96494401 L5.61557566,7.50073096 C5.61631554,7.52020718 5.62482412,7.53891962 5.63962165,7.55190376 C5.65999523,7.57053464 5.68685162,7.5797759 5.71397927,7.57749017 L10.1158755,7.57749017 C10.1350242,7.57645321 10.1528731,7.56717121 10.1650773,7.55190376 C10.1800612,7.53925746 10.1891928,7.5206816 10.1902331,7.50073096 L10.1902331,6.96494401 Z M5.29372931,4.38797296 C5.27458067,4.38900992 5.2567317,4.39829192 5.24452751,4.41355937 C5.22630857,4.43420154 5.21719956,4.46171977 5.2193717,4.4895548 L5.2193717,5.02801496 C5.22567381,5.06718596 5.25569341,5.09771261 5.29372931,5.10362853 L10.5368654,5.10362853 C10.5640035,5.10600501 10.5908937,5.09675212 10.611223,5.07804212 C10.6256979,5.06546567 10.6347456,5.04747266 10.6363788,5.02801496 L10.6363788,4.4895548 C10.6383897,4.4616255 10.6293084,4.43405333 10.611223,4.41317748 C10.5908341,4.39460523 10.5639507,4.38549275 10.5368654,4.38797296 L8.33277274,4.38797296 C8.35007742,4.37568787 8.36150912,4.35638988 8.36421749,4.33489071 C8.37121106,4.33620964 8.37838868,4.33392981 8.3834543,4.32878052 C8.38843646,4.323705 8.39065405,4.31640813 8.38937331,4.30930431 C8.3882434,4.28937855 8.37912901,4.27083774 8.36421749,4.2581315 C8.20472666,3.960609 8.03164745,3.67106782 7.84556395,3.39048505 C7.82854678,3.35687902 7.81152962,3.3404579 7.79525234,3.3404579 L7.71830517,3.3404579 L7.22369761,3.61999893 C7.21660367,3.61912551 7.20951356,3.62165905 7.20446082,3.62687289 C7.19936135,3.63205718 7.19689857,3.63940168 7.19780193,3.64673099 C7.18336815,3.65924983 7.17454222,3.67733378 7.173386,3.69675814 C7.17449582,3.71661625 7.18337434,3.7349468 7.19780193,3.74793096 C7.33308742,3.95905682 7.46504942,4.17243218 7.59363595,4.38797296 L5.29409925,4.38797296 L5.29372931,4.38797296 Z M5.44170465,3.59746761 C5.44077458,3.57754934 5.43194436,3.55890417 5.41728872,3.54591292 L5.39250285,3.52032651 L4.79912175,3.36680808 C4.79293638,3.35917443 4.78379156,3.35476345 4.77415091,3.35476345 C4.76451027,3.35476345 4.75536545,3.35917443 4.74918008,3.36680808 L4.69997828,3.4179809 C4.35050049,4.73303745 3.79975099,5.98201543 3.06855021,7.11769865 C3.06168418,7.11689277 3.05484624,7.11943394 3.05005329,7.12457262 C3.04545309,7.12957286 3.04327904,7.13644592 3.04413428,7.14328506 C3.0452441,7.16276128 3.05412262,7.18147372 3.06818027,7.19445787 L3.31566902,7.80662216 C3.3164089,7.82648027 3.32528742,7.84481082 3.33971501,7.85779496 C3.34568093,7.86553088 3.35473727,7.87003786 3.36431591,7.87003786 C3.37389456,7.87003786 3.3829509,7.86553088 3.38891682,7.85779496 C3.42221127,7.85779496 3.43848856,7.84901156 3.43848854,7.83220855 C3.64355424,7.54840705 3.84153632,7.25922382 4.03223958,6.96494401 L4.03223958,11.0473122 C4.03801507,11.0866933 4.06776795,11.1177159 4.10585732,11.1240714 L4.65151635,11.1240714 C4.67821639,11.1256231 4.70446316,11.1164547 4.72476415,11.098485 C4.73884743,11.0852042 4.74756532,11.0669325 4.74918008,11.0473122 L4.74918008,5.5359242 C5.01325281,4.91152255 5.24443168,4.27283985 5.44170465,3.62267213 L5.44170465,3.59746761 Z M5.71027987,5.63750604 L5.71397927,5.63750604 C5.65976348,5.63853548 5.61616676,5.68387867 5.61557566,5.73985166 L5.61557566,6.25005222 C5.61319268,6.27814438 5.62231599,6.30598281 5.64073147,6.32681142 C5.66074224,6.34530094 5.68720406,6.3545444 5.71397927,6.35239783 L10.112916,6.35239783 C10.1321957,6.35146637 10.1501981,6.34217445 10.1624878,6.32681142 C10.180313,6.30564789 10.189233,6.27802365 10.1872736,6.25005222 L10.1872736,5.73985166 C10.1891813,5.71223412 10.1802491,5.68498501 10.1624878,5.66423811 C10.1500654,5.64887637 10.1322263,5.63925646 10.112916,5.63750604 L5.71064981,5.63750604 L5.71027987,5.63750604 Z" id="Shape"></path>
                    <polygon id="Shape" points="8.99974862 9 7 9 7 10 9 10"></polygon>
                </g>
                <g id="zidian" transform="translate(1.000000, 209.000000)" fill="#A6B1BC">
                    <polygon id="Shape" points="15 1.93983402 15 1 14 1 14 3 15 3"></polygon>
                    <polygon id="Shape" points="14 4 15 4 15 6 14 6"></polygon>
                    <path d="M0,1.1375 L0,14.15625 L0,14.59375 C0.0157575758,15.371875 0.690181818,16 1.47806061,16 L13,16 L13,15.0625 L1.47806061,15.0625 C1.20072727,15.0625 0.976969697,14.840625 0.976969697,14.565625 C0.976969697,14.290625 1.20072727,14.06875 1.47806061,14.06875 L13,14.06875 L13,13.271875 L13,13.125 L13,0 L1.12193939,0 C0.560969697,0.121875 0.119757576,0.575 0,1.1375 Z M4.21672727,3.396875 L10.7844848,3.396875 L10.7844848,4.528125 L4.21672727,4.528125 L4.21672727,3.396875 Z M4.21672727,6.43125 L10.7844848,6.43125 L10.7844848,7.5625 L4.21672727,7.5625 L4.21672727,6.43125 Z M4.21672727,9.4625 L10.7844848,9.4625 L10.7844848,10.59375 L4.21672727,10.59375 L4.21672727,9.4625 Z M1.99806061,3.396875 L3.13890909,3.396875 L3.13890909,4.528125 L1.99806061,4.528125 L1.99806061,3.396875 Z M1.99806061,6.43125 L3.13890909,6.43125 L3.13890909,7.5625 L1.99806061,7.5625 L1.99806061,6.43125 Z M1.99806061,9.4625 L3.13890909,9.4625 L3.13890909,10.59375 L1.99806061,10.59375 L1.99806061,9.4625 Z" id="Shape"></path>
                    <polygon id="Shape" points="14 10 15 10 15 13 14 13"></polygon>
                </g>
                <g id="zidian-copy" transform="translate(28.000000, 209.000000)" fill="#FFFFFF">
                    <polygon id="Shape" points="15 1.93983402 15 1 14 1 14 3 15 3"></polygon>
                    <polygon id="Shape" points="14 4 15 4 15 6 14 6"></polygon>
                    <path d="M0,1.1375 L0,14.15625 L0,14.59375 C0.0157575758,15.371875 0.690181818,16 1.47806061,16 L13,16 L13,15.0625 L1.47806061,15.0625 C1.20072727,15.0625 0.976969697,14.840625 0.976969697,14.565625 C0.976969697,14.290625 1.20072727,14.06875 1.47806061,14.06875 L13,14.06875 L13,13.271875 L13,13.125 L13,0 L1.12193939,0 C0.560969697,0.121875 0.119757576,0.575 0,1.1375 Z M4.21672727,3.396875 L10.7844848,3.396875 L10.7844848,4.528125 L4.21672727,4.528125 L4.21672727,3.396875 Z M4.21672727,6.43125 L10.7844848,6.43125 L10.7844848,7.5625 L4.21672727,7.5625 L4.21672727,6.43125 Z M4.21672727,9.4625 L10.7844848,9.4625 L10.7844848,10.59375 L4.21672727,10.59375 L4.21672727,9.4625 Z M1.99806061,3.396875 L3.13890909,3.396875 L3.13890909,4.528125 L1.99806061,4.528125 L1.99806061,3.396875 Z M1.99806061,6.43125 L3.13890909,6.43125 L3.13890909,7.5625 L1.99806061,7.5625 L1.99806061,6.43125 Z M1.99806061,9.4625 L3.13890909,9.4625 L3.13890909,10.59375 L1.99806061,10.59375 L1.99806061,9.4625 Z" id="Shape"></path>
                    <polygon id="Shape" points="14 10 15 10 15 13 14 13"></polygon>
                </g>
                <g id="quyu" transform="translate(2.000000, 183.000000)" fill="#A6B1BC">
                    <path d="M10.0798804,11 C8.73131141,12.2323784 7.24718781,13.5875398 7.24718781,13.5875398 C7.11163321,13.7121419 6.88836679,13.7121419 6.75281219,13.5875398 C6.75281219,13.5875398 5.26868859,12.2323784 3.92011961,11 C1.59874697,11.3428831 0,12.0613915 0,12.8926785 C0,14.056844 3.13370355,15 7,15 C10.8662965,15 14,14.056844 14,12.8926785 C14,12.062301 12.401253,11.3428831 10.0798804,11 Z" id="Shape"></path>
                    <path d="M6.8206278,12.9196827 C6.91908754,13.0267724 7.08091246,13.0267724 7.18034705,12.9196827 C7.18034705,12.9196827 10.7892377,8.99129335 10.7980113,8.97538894 C11.5476701,8.0243052 12,6.78906266 12,5.43824807 C12,2.43443509 9.76174693,0 7,0 C4.23825307,0 2,2.43443509 2,5.43824807 C2,6.78906266 2.45330474,8.0243052 3.20198869,8.97538894 C3.21271203,8.99129335 6.8206278,12.9196827 6.8206278,12.9196827 Z M7.00097485,2.95609975 C8.18834081,2.95609975 9.14954182,4.00260995 9.14954182,5.29298779 C9.14954182,6.58336562 8.18736596,7.62987582 7.00097485,7.62987582 C5.81458374,7.62987582 4.85240788,6.58336562 4.85240788,5.29298779 C4.85143303,4.00260995 5.81360889,2.95609975 7.00097485,2.95609975 Z" id="Shape"></path>
                </g>
                <g id="quyu-copy" transform="translate(28.000000, 183.000000)" fill="#FFFFFF">
                    <path d="M10.0798804,11 C8.73131141,12.2323784 7.24718781,13.5875398 7.24718781,13.5875398 C7.11163321,13.7121419 6.88836679,13.7121419 6.75281219,13.5875398 C6.75281219,13.5875398 5.26868859,12.2323784 3.92011961,11 C1.59874697,11.3428831 0,12.0613915 0,12.8926785 C0,14.056844 3.13370355,15 7,15 C10.8662965,15 14,14.056844 14,12.8926785 C14,12.062301 12.401253,11.3428831 10.0798804,11 Z" id="Shape"></path>
                    <path d="M6.8206278,12.9196827 C6.91908754,13.0267724 7.08091246,13.0267724 7.18034705,12.9196827 C7.18034705,12.9196827 10.7892377,8.99129335 10.7980113,8.97538894 C11.5476701,8.0243052 12,6.78906266 12,5.43824807 C12,2.43443509 9.76174693,0 7,0 C4.23825307,0 2,2.43443509 2,5.43824807 C2,6.78906266 2.45330474,8.0243052 3.20198869,8.97538894 C3.21271203,8.99129335 6.8206278,12.9196827 6.8206278,12.9196827 Z M7.00097485,2.95609975 C8.18834081,2.95609975 9.14954182,4.00260995 9.14954182,5.29298779 C9.14954182,6.58336562 8.18736596,7.62987582 7.00097485,7.62987582 C5.81458374,7.62987582 4.85240788,6.58336562 4.85240788,5.29298779 C4.85143303,4.00260995 5.81360889,2.95609975 7.00097485,2.95609975 Z" id="Shape"></path>
                </g>
                <g id="chanpin" transform="translate(1.000000, 158.000000)">
                    <path d="M8.54581801,13.5507462 L8.55453382,6.42529841 C8.55453382,6.28165957 8.64592995,6.15637939 8.78402367,6.10272166 L15.3214457,3.86548564 C15.4762728,3.81098521 15.6482972,3.83372745 15.7830703,3.92651409 C15.9178435,4.01930072 15.9986823,4.170646 16,4.33264674 L16,12.2210429 C15.9997678,12.4322072 15.8634209,12.6199031 15.6606429,12.688204 L9.01343355,14.9705094 C8.9064641,15.008036 8.78767022,14.9921343 8.69473672,14.9278487 C8.60180323,14.8635632 8.54626414,14.7588724 8.54573805,14.6469871 L8.54573805,13.5507462 L8.54581801,13.5507462 Z M1.07324484,2.27860343 L7.82168559,0.0338033174 C7.91418651,-0.0112677725 8.02272377,-0.0112677725 8.11522469,0.0338033174 L14.5418199,2.12747929 C15.7248521,2.58605201 15.7432432,2.6846215 14.5418199,3.07038989 L8.16967855,5.14696788 C8.06582404,5.18289745 7.9526471,5.18289745 7.84879258,5.14696788 L0.504557812,2.75648032 C0.357748281,2.71038667 0.357748281,2.50363498 0.504557812,2.45966874 L1.07324484,2.27962773 L1.07324484,2.27860343 Z M6.99632177,14.9790978 L0.339277147,12.69695 C0.138299651,12.626204 0.00304586437,12.4399061 0,12.2296313 L0,4.34123513 C0,3.99943299 0.347913002,3.75722466 0.678474332,3.87407403 L7.21597633,6.11131005 C7.35407005,6.15637939 7.44426675,6.29142985 7.44426675,6.43483231 L7.46385735,13.4157746 L7.46385735,14.6649519 C7.46128485,14.7755267 7.40474364,14.8780897 7.31200677,14.9404014 C7.21926991,15.002713 7.10172533,15.0171215 6.99632177,14.9790978 Z" id="Shape" fill="#A6B1BC"></path>
                    <path d="M34.545818,13.5507462 L34.5545338,6.42529841 C34.5545338,6.28165957 34.64593,6.15637939 34.7840237,6.10272166 L41.3214457,3.86548564 C41.4762728,3.81098521 41.6482972,3.83372745 41.7830703,3.92651409 C41.9178435,4.01930072 41.9986823,4.170646 42,4.33264674 L42,12.2210429 C41.9997678,12.4322072 41.8634209,12.6199031 41.6606429,12.688204 L35.0134336,14.9705094 C34.9064641,15.008036 34.7876702,14.9921343 34.6947367,14.9278487 C34.6018032,14.8635632 34.5462641,14.7588724 34.545738,14.6469871 L34.545738,13.5507462 L34.545818,13.5507462 Z M27.0732448,2.27860343 L33.8216856,0.0338033174 C33.9141865,-0.0112677725 34.0227238,-0.0112677725 34.1152247,0.0338033174 L40.5418199,2.12747929 C41.7248521,2.58605201 41.7432432,2.6846215 40.5418199,3.07038989 L34.1696786,5.14696788 C34.065824,5.18289745 33.9526471,5.18289745 33.8487926,5.14696788 L26.5045578,2.75648032 C26.3577483,2.71038667 26.3577483,2.50363498 26.5045578,2.45966874 L27.0732448,2.27962773 L27.0732448,2.27860343 Z M32.9963218,14.9790978 L26.3392771,12.69695 C26.1382997,12.626204 26.0030459,12.4399061 26,12.2296313 L26,4.34123513 C26,3.99943299 26.347913,3.75722466 26.6784743,3.87407403 L33.2159763,6.11131005 C33.35407,6.15637939 33.4442668,6.29142985 33.4442668,6.43483231 L33.4638573,13.4157746 L33.4638573,14.6649519 C33.4612848,14.7755267 33.4047436,14.8780897 33.3120068,14.9404014 C33.2192699,15.002713 33.1017253,15.0171215 32.9963218,14.9790978 Z" id="Shape-Copy" fill="#FFFFFF"></path>
                </g>
                <path d="M6.82483919,262.46957 C7.09302326,262.46957 7.32244764,262.562428 7.51311232,262.748144 C7.70377701,262.933861 7.79910935,263.160647 7.79910935,263.428501 L7.79910935,267.294409 C7.79910935,267.562593 7.70377701,267.792017 7.51311232,267.982682 C7.32244764,268.173347 7.09302326,268.268679 6.82483919,268.268679 L2.95893122,268.268679 C2.69074715,268.268679 2.46396173,268.173347 2.27857496,267.982682 C2.09318819,267.792017 2.00032987,267.562593 2,267.294409 L2,263.428501 C2,263.160317 2.09285832,262.933531 2.27857496,262.748144 C2.4642916,262.562758 2.69107702,262.469899 2.95893122,262.46957 L6.82483919,262.46957 Z M6.82483919,270.200891 C7.09302326,270.200891 7.32244764,270.293749 7.51311232,270.479466 C7.70377701,270.665182 7.79910935,270.891968 7.79910935,271.159822 L7.79910935,275.041069 C7.79910935,275.309253 7.70377701,275.536038 7.51311232,275.721425 C7.32244764,275.906812 7.09302326,275.99967 6.82483919,276 L2.95893122,276 C2.69074715,276 2.46396173,275.907142 2.27857496,275.721425 C2.09318819,275.535708 2.00032987,275.308923 2,275.041069 L2,271.159822 C2,270.891638 2.09285832,270.664852 2.27857496,270.479466 C2.4642916,270.294079 2.69107702,270.201221 2.95893122,270.200891 L6.82483919,270.200891 Z M14.5714993,270.200891 C14.8396833,270.200891 15.0664687,270.293749 15.2518555,270.479466 C15.4372423,270.665182 15.5301006,270.891968 15.5304305,271.159822 L15.5304305,275.041069 C15.5304305,275.309253 15.4375722,275.536038 15.2518555,275.721425 C15.0661389,275.906812 14.8393535,275.99967 14.5714993,276 L10.7055913,276 C10.4374072,276 10.2079828,275.907142 10.0173182,275.721425 C9.82665347,275.535708 9.73132113,275.308923 9.73132113,275.041069 L9.73132113,271.159822 C9.73132113,270.891638 9.82665347,270.664852 10.0173182,270.479466 C10.2079828,270.294079 10.4374072,270.201221 10.7055913,270.200891 L14.5714993,270.200891 Z M16.7209302,264.170213 C16.9270988,264.376381 17.0301831,264.618671 17.0301831,264.897081 C17.0301831,265.175491 16.9270988,265.412667 16.7209302,265.60861 L13.8446314,268.484908 C13.6384628,268.691077 13.3988125,268.794161 13.1256804,268.794161 C12.8525483,268.794161 12.6128979,268.691077 12.4067294,268.484908 L9.53043049,265.60861 C9.33448789,265.412667 9.23651658,265.175491 9.23651658,264.897081 C9.23651658,264.618671 9.33448789,264.376381 9.53043049,264.170213 L12.4067294,261.293914 C12.6128979,261.097971 12.8525483,261 13.1256804,261 C13.3988125,261 13.6384628,261.097971 13.8446314,261.293914 L16.7209302,264.170213 Z" id="Shape" fill="#A6B1BC"></path>
                <path d="M32.8248392,262.46957 C33.0930233,262.46957 33.3224476,262.562428 33.5131123,262.748144 C33.703777,262.933861 33.7991093,263.160647 33.7991093,263.428501 L33.7991093,267.294409 C33.7991093,267.562593 33.703777,267.792017 33.5131123,267.982682 C33.3224476,268.173347 33.0930233,268.268679 32.8248392,268.268679 L28.9589312,268.268679 C28.6907472,268.268679 28.4639617,268.173347 28.278575,267.982682 C28.0931882,267.792017 28.0003299,267.562593 28,267.294409 L28,263.428501 C28,263.160317 28.0928583,262.933531 28.278575,262.748144 C28.4642916,262.562758 28.691077,262.469899 28.9589312,262.46957 L32.8248392,262.46957 Z M32.8248392,270.200891 C33.0930233,270.200891 33.3224476,270.293749 33.5131123,270.479466 C33.703777,270.665182 33.7991093,270.891968 33.7991093,271.159822 L33.7991093,275.041069 C33.7991093,275.309253 33.703777,275.536038 33.5131123,275.721425 C33.3224476,275.906812 33.0930233,275.99967 32.8248392,276 L28.9589312,276 C28.6907472,276 28.4639617,275.907142 28.278575,275.721425 C28.0931882,275.535708 28.0003299,275.308923 28,275.041069 L28,271.159822 C28,270.891638 28.0928583,270.664852 28.278575,270.479466 C28.4642916,270.294079 28.691077,270.201221 28.9589312,270.200891 L32.8248392,270.200891 Z M40.5714993,270.200891 C40.8396833,270.200891 41.0664687,270.293749 41.2518555,270.479466 C41.4372423,270.665182 41.5301006,270.891968 41.5304305,271.159822 L41.5304305,275.041069 C41.5304305,275.309253 41.4375722,275.536038 41.2518555,275.721425 C41.0661389,275.906812 40.8393535,275.99967 40.5714993,276 L36.7055913,276 C36.4374072,276 36.2079828,275.907142 36.0173182,275.721425 C35.8266535,275.535708 35.7313211,275.308923 35.7313211,275.041069 L35.7313211,271.159822 C35.7313211,270.891638 35.8266535,270.664852 36.0173182,270.479466 C36.2079828,270.294079 36.4374072,270.201221 36.7055913,270.200891 L40.5714993,270.200891 Z M42.7209302,264.170213 C42.9270988,264.376381 43.0301831,264.618671 43.0301831,264.897081 C43.0301831,265.175491 42.9270988,265.412667 42.7209302,265.60861 L39.8446314,268.484908 C39.6384628,268.691077 39.3988125,268.794161 39.1256804,268.794161 C38.8525483,268.794161 38.6128979,268.691077 38.4067294,268.484908 L35.5304305,265.60861 C35.3344879,265.412667 35.2365166,265.175491 35.2365166,264.897081 C35.2365166,264.618671 35.3344879,264.376381 35.5304305,264.170213 L38.4067294,261.293914 C38.6128979,261.097971 38.8525483,261 39.1256804,261 C39.3988125,261 39.6384628,261.097971 39.8446314,261.293914 L42.7209302,264.170213 Z" id="Shape" fill="#FFFFFF"></path>
            </g>
        </g>
    </g>
</svg>